<?xml version="1.0" encoding="UTF-8" standalone="no"?>
<svg
   xmlns:dc="http://purl.org/dc/elements/1.1/"
   xmlns:cc="http://creativecommons.org/ns#"
   xmlns:rdf="http://www.w3.org/1999/02/22-rdf-syntax-ns#"
   xmlns:svg="http://www.w3.org/2000/svg"
   xmlns="http://www.w3.org/2000/svg"
   xmlns:sodipodi="http://sodipodi.sourceforge.net/DTD/sodipodi-0.dtd"
   xmlns:inkscape="http://www.inkscape.org/namespaces/inkscape"
   enable-background="new 0 0 64 64"
   height="64px"
   id="Layer_1"
   version="1.1"
   viewBox="0 0 64 64"
   width="64px"
   xml:space="preserve"
   sodipodi:docname="software-dev-project.svg"
   inkscape:version="0.92.5 (2060ec1f9f, 2020-04-08)"><metadata
     id="metadata33"><rdf:RDF><cc:Work
         rdf:about=""><dc:format>image/svg+xml</dc:format><dc:type
           rdf:resource="http://purl.org/dc/dcmitype/StillImage" /><dc:title></dc:title></cc:Work></rdf:RDF></metadata><defs
     id="defs31" /><sodipodi:namedview
     pagecolor="#181818"
     bordercolor="#666666"
     borderopacity="1"
     objecttolerance="10"
     gridtolerance="10"
     guidetolerance="10"
     inkscape:pageopacity="0"
     inkscape:pageshadow="2"
     inkscape:window-width="1864"
     inkscape:window-height="963"
     id="namedview29"
     showgrid="false"
     inkscape:zoom="8.2399692"
     inkscape:cx="30.028351"
     inkscape:cy="31.565954"
     inkscape:window-x="2972"
     inkscape:window-y="213"
     inkscape:window-maximized="0"
     inkscape:current-layer="g26" /><g
     id="g26"><path
       d="M19,8.429v3.811l5,4V19h-4v3h-4.763l-2.671-3.271C12.834,18.389,13,17.966,13,17.5c0-1.104-0.896-2-2-2   s-2,0.896-2,2s0.896,2,2,2c0.275,0,0.538-0.056,0.776-0.157L14.763,23H20v2h-6.207l-1.783,1.783C11.712,26.607,11.37,26.5,11,26.5   c-1.104,0-2,0.896-2,2s0.896,2,2,2s2-0.896,2-2c0-0.37-0.107-0.712-0.283-1.01l1.49-1.49H20v5h-6.207l-1.783,1.783   C11.712,32.607,11.37,32.5,11,32.5c-1.104,0-2,0.896-2,2s0.896,2,2,2s2-0.896,2-2c0-0.37-0.107-0.712-0.283-1.01l1.49-1.49H20v3h4   v1c-0.861,0.223-1.5,0.999-1.5,1.929c0,1.104,0.896,2,2,2s2-0.896,2-2c0-0.93-0.639-1.706-1.5-1.929v-1h4v1   c-0.861,0.223-1.5,0.999-1.5,1.929c0,1.104,0.896,2,2,2s2-0.896,2-2c0-0.93-0.639-1.706-1.5-1.929v-1h4v1   c-0.861,0.223-1.5,0.999-1.5,1.929c0,1.104,0.896,2,2,2s2-0.896,2-2c0-0.93-0.639-1.706-1.5-1.929v-1h4v1   c-0.861,0.223-1.5,0.999-1.5,1.929c0,1.104,0.896,2,2,2s2-0.896,2-2c0-0.93-0.639-1.706-1.5-1.929v-1h4v-3h5.793l1.49,1.49   C51.107,33.788,51,34.13,51,34.5c0,1.104,0.896,2,2,2s2-0.896,2-2s-0.896-2-2-2c-0.37,0-0.712,0.107-1.01,0.283L50.207,31H44v-2   h6.203l1.517-1.476C52.067,27.817,52.51,28,53,28c1.104,0,2-0.896,2-2s-0.896-2-2-2s-2,0.896-2,2c0,0.247,0.051,0.481,0.133,0.7   L49.797,28H44v-5h5.237l2.986-3.657C52.462,19.444,52.725,19.5,53,19.5c1.104,0,2-0.896,2-2s-0.896-2-2-2s-2,0.896-2,2   c0,0.466,0.166,0.889,0.434,1.229L48.763,22H44v-3h-4v-2.76l5-4V8.429c0.861-0.223,1.5-0.999,1.5-1.929c0-1.104-0.896-2-2-2   s-2,0.896-2,2c0,0.93,0.639,1.706,1.5,1.929v3.331l-5,4V19h-4v-4.756l5-3.917V8.429c0.861-0.223,1.5-0.999,1.5-1.929   c0-1.104-0.896-2-2-2s-2,0.896-2,2c0,0.93,0.639,1.706,1.5,1.929V9.84l-5,3.917V19h-4v-5.244L25,9.84V8.429   c0.861-0.223,1.5-0.999,1.5-1.929c0-1.104-0.896-2-2-2s-2,0.896-2,2c0,0.93,0.639,1.706,1.5,1.929v1.898l5,3.917V19h-4v-3.24l-5-4   V8.429c0.861-0.223,1.5-0.999,1.5-1.929c0-1.104-0.896-2-2-2s-2,0.896-2,2C17.5,7.43,18.139,8.206,19,8.429z M11,18.5   c-0.552,0-1-0.448-1-1s0.448-1,1-1s1,0.448,1,1S11.552,18.5,11,18.5z M11,29.5c-0.552,0-1-0.448-1-1s0.448-1,1-1s1,0.448,1,1   S11.552,29.5,11,29.5z M11,35.5c-0.552,0-1-0.448-1-1s0.448-1,1-1s1,0.448,1,1S11.552,35.5,11,35.5z M53,33.5c0.552,0,1,0.448,1,1   s-0.448,1-1,1s-1-0.448-1-1S52.448,33.5,53,33.5z M53,25c0.552,0,1,0.448,1,1s-0.448,1-1,1s-1-0.448-1-1S52.448,25,53,25z M53,16.5   c0.552,0,1,0.448,1,1s-0.448,1-1,1s-1-0.448-1-1S52.448,16.5,53,16.5z M43.5,6.5c0-0.552,0.448-1,1-1s1,0.448,1,1s-0.448,1-1,1   S43.5,7.052,43.5,6.5z M38.5,6.5c0-0.552,0.448-1,1-1s1,0.448,1,1s-0.448,1-1,1S38.5,7.052,38.5,6.5z M23.5,6.5   c0-0.552,0.448-1,1-1s1,0.448,1,1s-0.448,1-1,1S23.5,7.052,23.5,6.5z M25.5,37.929c0,0.552-0.448,1-1,1s-1-0.448-1-1s0.448-1,1-1   S25.5,37.377,25.5,37.929z M30.5,37.929c0,0.552-0.448,1-1,1s-1-0.448-1-1s0.448-1,1-1S30.5,37.377,30.5,37.929z M35.5,37.929   c0,0.552-0.448,1-1,1s-1-0.448-1-1s0.448-1,1-1S35.5,37.377,35.5,37.929z M40.5,37.929c0,0.552-0.448,1-1,1s-1-0.448-1-1   s0.448-1,1-1S40.5,37.377,40.5,37.929z M43,20v2v1v5v1v2v1v2H21v-2v-1v-5v-1v-2v-1v-2H43z M19.5,5.5c0.552,0,1,0.448,1,1   s-0.448,1-1,1s-1-0.448-1-1S18.948,5.5,19.5,5.5z"
       fill="#37474F"
       id="path8"
       style="fill:#b1b1b1;fill-opacity:1" /><path
       d="M57,10H46v1h11c0.551,0,1,0.449,1,1v32H6V12c0-0.551,0.449-1,1-1h11v-1H7c-1.1,0-2,0.9-2,2v32v0.288V47   c0,1.1,0.9,2,2,2h18.714l-1.429,5H21c-1.104,0-2,0.896-2,2v1h26v-1c0-1.104-0.896-2-2-2h-3.286l-1.429-5H57c1.1,0,2-0.9,2-2v-2.175   V44V12C59,10.9,58.1,10,57,10z M40,55h3c0.551,0,1,0.449,1,1H20c0-0.551,0.449-1,1-1h3H40z M38.674,54H25.326l1.429-5h10.491   L38.674,54z M58,47c0,0.551-0.449,1-1,1H38H26H7c-0.551,0-1-0.449-1-1v-2h52V47z"
       fill="#37474F"
       id="path10"
       style="fill:#b1b1b1;fill-opacity:1" /><polygon
       fill="#37474F"
       points="21,10 21,11 23.237,11 23,10.814 23,10  "
       id="polygon12"
       style="fill:#b1b1b1;fill-opacity:1" /><polygon
       fill="#37474F"
       points="35.897,11 37.174,10 26.826,10 28.103,11  "
       id="polygon14"
       style="fill:#b1b1b1;fill-opacity:1" /><polygon
       fill="#37474F"
       points="43,10 41,10 41,10.814 40.763,11 43,11  "
       id="polygon16"
       style="fill:#b1b1b1;fill-opacity:1" /><polygon
       fill="#37474F"
       points="33.344,13 34.621,12 29.379,12 30.656,13  "
       id="polygon18"
       style="fill:#b1b1b1;fill-opacity:1" /><polygon
       fill="#37474F"
       points="7,12 7,42 57,42 57,12 46,12 46,12.721 45.651,13 56,13 56,41 8,41 8,13 18.349,13 18,12.721    18,12  "
       id="polygon20"
       style="fill:#b1b1b1;fill-opacity:1" /><polygon
       fill="#37474F"
       points="25.791,13 24.514,12 21.901,12 23.151,13  "
       id="polygon22"
       style="fill:#b1b1b1;fill-opacity:1" /><polygon
       fill="#37474F"
       points="38.209,13 40.849,13 42.099,12 39.486,12  "
       id="polygon24"
       style="fill:#b1b1b1;fill-opacity:1" /></g></svg>